<mxfile host="app.diagrams.net" modified="2024-04-21T22:19:20.492Z" agent="Mozilla/5.0 (Windows NT 10.0; Win64; x64) AppleWebKit/537.36 (KHTML, like Gecko) Chrome/124.0.0.0 Safari/537.36" etag="NqpK7i8GY732PtnEE00L" version="24.2.7" type="device">
  <diagram name="Page-1" id="HYQh5svYpLn2h3ntDSyn">
    <mxGraphModel dx="1193" dy="1867" grid="1" gridSize="10" guides="1" tooltips="1" connect="1" arrows="1" fold="1" page="1" pageScale="1" pageWidth="827" pageHeight="1169" math="0" shadow="0">
      <root>
        <mxCell id="0" />
        <mxCell id="1" parent="0" />
        <mxCell id="wmJ9qZLpq_xBiwIUnTlw-48" value="" style="rounded=0;whiteSpace=wrap;html=1;fontFamily=Helvetica;fontSize=11;labelBackgroundColor=default;fillColor=none;dashed=1;strokeWidth=4;strokeColor=#d79b00;" vertex="1" parent="1">
          <mxGeometry x="740" y="100" width="260" height="320" as="geometry" />
        </mxCell>
        <mxCell id="wmJ9qZLpq_xBiwIUnTlw-1" value="&lt;font style=&quot;font-size: 15px;&quot;&gt;chatbot.html&lt;/font&gt;" style="shape=note;whiteSpace=wrap;html=1;backgroundOutline=1;darkOpacity=0.05;fillColor=#dae8fc;strokeColor=#6c8ebf;strokeWidth=3;align=center;labelPosition=center;verticalLabelPosition=bottom;verticalAlign=top;" vertex="1" parent="1">
          <mxGeometry x="151" y="190" width="80" height="100" as="geometry" />
        </mxCell>
        <mxCell id="wmJ9qZLpq_xBiwIUnTlw-2" value="&lt;font style=&quot;font-size: 15px;&quot;&gt;UI files&lt;/font&gt;" style="shape=note;whiteSpace=wrap;html=1;backgroundOutline=1;darkOpacity=0.05;fillColor=#dae8fc;strokeColor=#6c8ebf;strokeWidth=3;align=center;labelPosition=center;verticalLabelPosition=bottom;verticalAlign=top;" vertex="1" parent="1">
          <mxGeometry x="60" y="-176" width="80" height="100" as="geometry" />
        </mxCell>
        <mxCell id="wmJ9qZLpq_xBiwIUnTlw-3" value="&lt;font style=&quot;font-size: 15px;&quot;&gt;JS files&lt;/font&gt;" style="shape=note;whiteSpace=wrap;html=1;backgroundOutline=1;darkOpacity=0.05;fillColor=#ffe6cc;strokeColor=#d79b00;strokeWidth=3;align=center;labelPosition=center;verticalLabelPosition=bottom;verticalAlign=top;" vertex="1" parent="1">
          <mxGeometry x="170" y="-176" width="80" height="100" as="geometry" />
        </mxCell>
        <mxCell id="wmJ9qZLpq_xBiwIUnTlw-4" value="&lt;span style=&quot;font-size: 15px;&quot;&gt;PY files&lt;/span&gt;" style="shape=note;whiteSpace=wrap;html=1;backgroundOutline=1;darkOpacity=0.05;fillColor=#d5e8d4;strokeColor=#82b366;strokeWidth=3;align=center;labelPosition=center;verticalLabelPosition=bottom;verticalAlign=top;" vertex="1" parent="1">
          <mxGeometry x="280" y="-176" width="80" height="100" as="geometry" />
        </mxCell>
        <mxCell id="wmJ9qZLpq_xBiwIUnTlw-5" value="&lt;font style=&quot;font-size: 15px;&quot;&gt;cookie.js&lt;/font&gt;" style="shape=note;whiteSpace=wrap;html=1;backgroundOutline=1;darkOpacity=0.05;fillColor=#ffe6cc;strokeColor=#d79b00;strokeWidth=3;align=center;labelPosition=center;verticalLabelPosition=bottom;verticalAlign=top;" vertex="1" parent="1">
          <mxGeometry x="390" y="30" width="80" height="100" as="geometry" />
        </mxCell>
        <mxCell id="wmJ9qZLpq_xBiwIUnTlw-10" value="&lt;font style=&quot;font-size: 15px;&quot;&gt;User/ Client&lt;/font&gt;" style="shape=image;html=1;verticalAlign=top;verticalLabelPosition=bottom;labelBackgroundColor=#ffffff;imageAspect=0;aspect=fixed;image=https://cdn2.iconfinder.com/data/icons/css-vol-2/24/laptop-128.png" vertex="1" parent="1">
          <mxGeometry x="390" y="-184" width="98" height="98" as="geometry" />
        </mxCell>
        <mxCell id="wmJ9qZLpq_xBiwIUnTlw-14" style="edgeStyle=orthogonalEdgeStyle;rounded=0;orthogonalLoop=1;jettySize=auto;html=1;strokeWidth=3;endArrow=blockThin;endFill=1;" edge="1" parent="1" source="wmJ9qZLpq_xBiwIUnTlw-12" target="wmJ9qZLpq_xBiwIUnTlw-1">
          <mxGeometry relative="1" as="geometry" />
        </mxCell>
        <mxCell id="wmJ9qZLpq_xBiwIUnTlw-12" value="&lt;font style=&quot;font-size: 15px;&quot;&gt;User&lt;/font&gt;" style="shape=image;html=1;verticalAlign=top;verticalLabelPosition=bottom;labelBackgroundColor=#ffffff;imageAspect=0;aspect=fixed;image=https://cdn2.iconfinder.com/data/icons/css-vol-2/24/laptop-128.png;strokeWidth=2;" vertex="1" parent="1">
          <mxGeometry x="142" y="20" width="98" height="98" as="geometry" />
        </mxCell>
        <mxCell id="wmJ9qZLpq_xBiwIUnTlw-15" value="&lt;font style=&quot;font-size: 15px;&quot;&gt;fetchchatstatus.js&lt;/font&gt;" style="shape=note;whiteSpace=wrap;html=1;backgroundOutline=1;darkOpacity=0.05;fillColor=#ffe6cc;strokeColor=#d79b00;strokeWidth=3;align=center;size=32;verticalAlign=top;labelPosition=center;verticalLabelPosition=bottom;" vertex="1" parent="1">
          <mxGeometry x="390" y="180" width="80" height="100" as="geometry" />
        </mxCell>
        <mxCell id="wmJ9qZLpq_xBiwIUnTlw-39" style="edgeStyle=orthogonalEdgeStyle;rounded=0;orthogonalLoop=1;jettySize=auto;html=1;exitX=0;exitY=0;exitDx=80;exitDy=65;exitPerimeter=0;strokeColor=#82b366;strokeWidth=3;align=center;verticalAlign=middle;fontFamily=Helvetica;fontSize=11;fontColor=default;labelBackgroundColor=default;endArrow=blockThin;endFill=1;fillColor=#d5e8d4;" edge="1" parent="1" source="wmJ9qZLpq_xBiwIUnTlw-16" target="wmJ9qZLpq_xBiwIUnTlw-36">
          <mxGeometry relative="1" as="geometry" />
        </mxCell>
        <UserObject label="&lt;font style=&quot;font-size: 15px;&quot;&gt;fetchmsg.js&lt;/font&gt;" link="fetchmsg.js" id="wmJ9qZLpq_xBiwIUnTlw-16">
          <mxCell style="shape=note;whiteSpace=wrap;html=1;backgroundOutline=1;darkOpacity=0.05;fillColor=#ffe6cc;strokeColor=#d79b00;strokeWidth=3;align=center;labelPosition=center;verticalLabelPosition=bottom;verticalAlign=top;" vertex="1" parent="1">
            <mxGeometry x="399" y="330" width="80" height="100" as="geometry" />
          </mxCell>
        </UserObject>
        <mxCell id="wmJ9qZLpq_xBiwIUnTlw-21" style="edgeStyle=orthogonalEdgeStyle;rounded=0;orthogonalLoop=1;jettySize=auto;html=1;entryX=0;entryY=0.5;entryDx=0;entryDy=0;entryPerimeter=0;strokeColor=default;strokeWidth=3;align=center;verticalAlign=middle;fontFamily=Helvetica;fontSize=11;fontColor=default;labelBackgroundColor=default;endArrow=blockThin;endFill=1;" edge="1" parent="1" source="wmJ9qZLpq_xBiwIUnTlw-1" target="wmJ9qZLpq_xBiwIUnTlw-5">
          <mxGeometry relative="1" as="geometry" />
        </mxCell>
        <mxCell id="wmJ9qZLpq_xBiwIUnTlw-23" style="edgeStyle=orthogonalEdgeStyle;rounded=0;orthogonalLoop=1;jettySize=auto;html=1;entryX=-0.027;entryY=0.597;entryDx=0;entryDy=0;entryPerimeter=0;strokeColor=default;strokeWidth=3;align=center;verticalAlign=middle;fontFamily=Helvetica;fontSize=11;fontColor=default;labelBackgroundColor=default;endArrow=blockThin;endFill=1;" edge="1" parent="1" source="wmJ9qZLpq_xBiwIUnTlw-1" target="wmJ9qZLpq_xBiwIUnTlw-15">
          <mxGeometry relative="1" as="geometry" />
        </mxCell>
        <mxCell id="wmJ9qZLpq_xBiwIUnTlw-24" style="edgeStyle=orthogonalEdgeStyle;rounded=0;orthogonalLoop=1;jettySize=auto;html=1;entryX=0;entryY=0.5;entryDx=0;entryDy=0;entryPerimeter=0;strokeColor=default;strokeWidth=3;align=center;verticalAlign=middle;fontFamily=Helvetica;fontSize=11;fontColor=default;labelBackgroundColor=default;endArrow=blockThin;endFill=1;" edge="1" parent="1" source="wmJ9qZLpq_xBiwIUnTlw-1" target="wmJ9qZLpq_xBiwIUnTlw-16">
          <mxGeometry relative="1" as="geometry">
            <Array as="points">
              <mxPoint x="310" y="240" />
              <mxPoint x="310" y="380" />
            </Array>
          </mxGeometry>
        </mxCell>
        <mxCell id="wmJ9qZLpq_xBiwIUnTlw-25" value="&lt;span style=&quot;font-size: 15px;&quot;&gt;index.html&lt;/span&gt;" style="shape=note;whiteSpace=wrap;html=1;backgroundOutline=1;darkOpacity=0.05;fillColor=#dae8fc;strokeColor=#6c8ebf;strokeWidth=3;align=center;labelPosition=center;verticalLabelPosition=bottom;verticalAlign=top;" vertex="1" parent="1">
          <mxGeometry x="619" y="190" width="80" height="100" as="geometry" />
        </mxCell>
        <mxCell id="wmJ9qZLpq_xBiwIUnTlw-26" style="edgeStyle=orthogonalEdgeStyle;rounded=0;orthogonalLoop=1;jettySize=auto;html=1;strokeWidth=3;endArrow=blockThin;endFill=1;" edge="1" parent="1" source="wmJ9qZLpq_xBiwIUnTlw-27" target="wmJ9qZLpq_xBiwIUnTlw-25">
          <mxGeometry relative="1" as="geometry" />
        </mxCell>
        <mxCell id="wmJ9qZLpq_xBiwIUnTlw-27" value="&lt;font style=&quot;font-size: 15px;&quot;&gt;User&lt;/font&gt;" style="shape=image;html=1;verticalAlign=top;verticalLabelPosition=bottom;labelBackgroundColor=#ffffff;imageAspect=0;aspect=fixed;image=https://cdn2.iconfinder.com/data/icons/css-vol-2/24/laptop-128.png;strokeWidth=2;" vertex="1" parent="1">
          <mxGeometry x="610" y="20" width="98" height="98" as="geometry" />
        </mxCell>
        <mxCell id="wmJ9qZLpq_xBiwIUnTlw-33" style="edgeStyle=orthogonalEdgeStyle;rounded=0;orthogonalLoop=1;jettySize=auto;html=1;entryX=1.042;entryY=0.604;entryDx=0;entryDy=0;entryPerimeter=0;strokeColor=default;strokeWidth=3;align=center;verticalAlign=middle;fontFamily=Helvetica;fontSize=11;fontColor=default;labelBackgroundColor=default;endArrow=blockThin;endFill=1;" edge="1" parent="1" source="wmJ9qZLpq_xBiwIUnTlw-25" target="wmJ9qZLpq_xBiwIUnTlw-15">
          <mxGeometry relative="1" as="geometry" />
        </mxCell>
        <mxCell id="wmJ9qZLpq_xBiwIUnTlw-34" style="edgeStyle=orthogonalEdgeStyle;rounded=0;orthogonalLoop=1;jettySize=auto;html=1;entryX=0.991;entryY=0.486;entryDx=0;entryDy=0;entryPerimeter=0;strokeColor=default;strokeWidth=3;align=center;verticalAlign=middle;fontFamily=Helvetica;fontSize=11;fontColor=default;labelBackgroundColor=default;endArrow=blockThin;endFill=1;" edge="1" parent="1" source="wmJ9qZLpq_xBiwIUnTlw-25" target="wmJ9qZLpq_xBiwIUnTlw-5">
          <mxGeometry relative="1" as="geometry">
            <Array as="points">
              <mxPoint x="540" y="240" />
              <mxPoint x="540" y="79" />
            </Array>
          </mxGeometry>
        </mxCell>
        <mxCell id="wmJ9qZLpq_xBiwIUnTlw-35" style="edgeStyle=orthogonalEdgeStyle;rounded=0;orthogonalLoop=1;jettySize=auto;html=1;entryX=0.992;entryY=0.507;entryDx=0;entryDy=0;entryPerimeter=0;strokeColor=default;strokeWidth=3;align=center;verticalAlign=middle;fontFamily=Helvetica;fontSize=11;fontColor=default;labelBackgroundColor=default;endArrow=blockThin;endFill=1;" edge="1" parent="1" source="wmJ9qZLpq_xBiwIUnTlw-25" target="wmJ9qZLpq_xBiwIUnTlw-16">
          <mxGeometry relative="1" as="geometry">
            <Array as="points">
              <mxPoint x="540" y="240" />
              <mxPoint x="540" y="381" />
            </Array>
          </mxGeometry>
        </mxCell>
        <mxCell id="wmJ9qZLpq_xBiwIUnTlw-41" style="edgeStyle=orthogonalEdgeStyle;rounded=0;orthogonalLoop=1;jettySize=auto;html=1;strokeColor=#82b366;strokeWidth=3;align=center;verticalAlign=middle;fontFamily=Helvetica;fontSize=11;fontColor=default;labelBackgroundColor=default;endArrow=blockThin;endFill=1;fillColor=#d5e8d4;" edge="1" parent="1" source="wmJ9qZLpq_xBiwIUnTlw-36" target="wmJ9qZLpq_xBiwIUnTlw-40">
          <mxGeometry relative="1" as="geometry" />
        </mxCell>
        <mxCell id="wmJ9qZLpq_xBiwIUnTlw-38" style="edgeStyle=orthogonalEdgeStyle;rounded=0;orthogonalLoop=1;jettySize=auto;html=1;entryX=0.411;entryY=-0.06;entryDx=0;entryDy=0;entryPerimeter=0;strokeColor=#82b366;strokeWidth=3;align=center;verticalAlign=middle;fontFamily=Helvetica;fontSize=11;fontColor=#B9E0A5;labelBackgroundColor=default;endArrow=blockThin;endFill=1;fillColor=#d5e8d4;exitX=1.022;exitY=0.773;exitDx=0;exitDy=0;exitPerimeter=0;" edge="1" parent="1" source="wmJ9qZLpq_xBiwIUnTlw-15" target="wmJ9qZLpq_xBiwIUnTlw-36">
          <mxGeometry relative="1" as="geometry">
            <Array as="points">
              <mxPoint x="593" y="257" />
            </Array>
          </mxGeometry>
        </mxCell>
        <mxCell id="wmJ9qZLpq_xBiwIUnTlw-40" value="&lt;span style=&quot;font-size: 15px;&quot;&gt;Chatbot.py&lt;/span&gt;&lt;div&gt;&lt;span style=&quot;font-size: 15px;&quot;&gt;&lt;br&gt;&lt;/span&gt;&lt;/div&gt;" style="shape=note;whiteSpace=wrap;html=1;backgroundOutline=1;darkOpacity=0.05;fillColor=#d5e8d4;strokeColor=#82b366;strokeWidth=3;align=center;labelPosition=center;verticalLabelPosition=bottom;verticalAlign=top;" vertex="1" parent="1">
          <mxGeometry x="560" y="610" width="80" height="100" as="geometry" />
        </mxCell>
        <mxCell id="wmJ9qZLpq_xBiwIUnTlw-36" value="&lt;span style=&quot;font-size: 15px;&quot;&gt;app.py&lt;/span&gt;" style="shape=note;whiteSpace=wrap;html=1;backgroundOutline=1;darkOpacity=0.05;fillColor=#d5e8d4;strokeColor=#82b366;strokeWidth=3;align=center;labelPosition=center;verticalLabelPosition=bottom;verticalAlign=top;horizontal=1;" vertex="1" parent="1">
          <mxGeometry x="560" y="430" width="80" height="100" as="geometry" />
        </mxCell>
        <mxCell id="wmJ9qZLpq_xBiwIUnTlw-43" value="&lt;div style=&quot;font-size: 14px; line-height: 19px; white-space: pre;&quot;&gt;&lt;font face=&quot;Helvetica&quot;&gt;chatbotJquery.html&lt;/font&gt;&lt;/div&gt;" style="shape=note;whiteSpace=wrap;html=1;backgroundOutline=1;darkOpacity=0.05;fillColor=#dae8fc;strokeColor=#6c8ebf;strokeWidth=3;align=center;labelPosition=center;verticalLabelPosition=bottom;verticalAlign=top;" vertex="1" parent="1">
          <mxGeometry x="840" y="118" width="80" height="100" as="geometry" />
        </mxCell>
        <mxCell id="wmJ9qZLpq_xBiwIUnTlw-44" value="&lt;div style=&quot;font-size: 14px; line-height: 19px; white-space: pre;&quot;&gt;&lt;div style=&quot;line-height: 19px;&quot;&gt;&lt;font face=&quot;Helvetica&quot;&gt;chatbotJquerybutton&lt;/font&gt;&lt;/div&gt;&lt;/div&gt;" style="shape=note;whiteSpace=wrap;html=1;backgroundOutline=1;darkOpacity=0.05;fillColor=#dae8fc;strokeColor=#6c8ebf;strokeWidth=3;align=center;labelPosition=center;verticalLabelPosition=bottom;verticalAlign=top;size=22;" vertex="1" parent="1">
          <mxGeometry x="840" y="280" width="80" height="100" as="geometry" />
        </mxCell>
        <mxCell id="wmJ9qZLpq_xBiwIUnTlw-45" style="edgeStyle=orthogonalEdgeStyle;rounded=0;orthogonalLoop=1;jettySize=auto;html=1;entryX=0;entryY=0.5;entryDx=0;entryDy=0;entryPerimeter=0;strokeColor=default;strokeWidth=3;align=center;verticalAlign=middle;fontFamily=Helvetica;fontSize=11;fontColor=default;labelBackgroundColor=default;endArrow=blockThin;endFill=1;" edge="1" parent="1" source="wmJ9qZLpq_xBiwIUnTlw-25" target="wmJ9qZLpq_xBiwIUnTlw-43">
          <mxGeometry relative="1" as="geometry" />
        </mxCell>
        <mxCell id="wmJ9qZLpq_xBiwIUnTlw-46" style="edgeStyle=orthogonalEdgeStyle;rounded=0;orthogonalLoop=1;jettySize=auto;html=1;entryX=0;entryY=0.5;entryDx=0;entryDy=0;entryPerimeter=0;strokeColor=default;strokeWidth=3;align=center;verticalAlign=middle;fontFamily=Helvetica;fontSize=11;fontColor=default;labelBackgroundColor=default;endArrow=blockThin;endFill=1;" edge="1" parent="1" source="wmJ9qZLpq_xBiwIUnTlw-25" target="wmJ9qZLpq_xBiwIUnTlw-44">
          <mxGeometry relative="1" as="geometry" />
        </mxCell>
        <mxCell id="wmJ9qZLpq_xBiwIUnTlw-49" value="&lt;font style=&quot;font-size: 20px;&quot;&gt;jQuery&lt;/font&gt;" style="text;html=1;align=center;verticalAlign=middle;whiteSpace=wrap;rounded=0;fontFamily=Helvetica;fontSize=11;fontColor=default;labelBackgroundColor=default;" vertex="1" parent="1">
          <mxGeometry x="740" y="64" width="60" height="30" as="geometry" />
        </mxCell>
        <mxCell id="wmJ9qZLpq_xBiwIUnTlw-50" value="&lt;span style=&quot;font-size: 15px;&quot;&gt;openchatbot.js&lt;/span&gt;" style="shape=note;whiteSpace=wrap;html=1;backgroundOutline=1;darkOpacity=0.05;fillColor=#ffe6cc;strokeColor=#d79b00;strokeWidth=3;align=center;size=32;verticalAlign=top;labelPosition=center;verticalLabelPosition=bottom;" vertex="1" parent="1">
          <mxGeometry x="850" y="440" width="80" height="100" as="geometry" />
        </mxCell>
        <mxCell id="wmJ9qZLpq_xBiwIUnTlw-52" value="" style="rounded=0;whiteSpace=wrap;html=1;fontFamily=Helvetica;fontSize=11;labelBackgroundColor=default;fillColor=none;strokeColor=#9673a6;dashed=1;strokeWidth=4;" vertex="1" parent="1">
          <mxGeometry x="499.5" y="400" width="201" height="350" as="geometry" />
        </mxCell>
        <mxCell id="wmJ9qZLpq_xBiwIUnTlw-51" style="edgeStyle=orthogonalEdgeStyle;rounded=0;orthogonalLoop=1;jettySize=auto;html=1;entryX=0;entryY=0.5;entryDx=0;entryDy=0;entryPerimeter=0;strokeColor=default;strokeWidth=3;align=center;verticalAlign=middle;fontFamily=Helvetica;fontSize=11;fontColor=default;labelBackgroundColor=default;endArrow=blockThin;endFill=1;" edge="1" parent="1" source="wmJ9qZLpq_xBiwIUnTlw-25" target="wmJ9qZLpq_xBiwIUnTlw-50">
          <mxGeometry relative="1" as="geometry">
            <Array as="points">
              <mxPoint x="720" y="240" />
              <mxPoint x="720" y="490" />
            </Array>
          </mxGeometry>
        </mxCell>
        <mxCell id="wmJ9qZLpq_xBiwIUnTlw-53" value="&lt;font style=&quot;font-size: 20px;&quot;&gt;Server side&lt;/font&gt;" style="text;html=1;align=center;verticalAlign=middle;whiteSpace=wrap;rounded=0;fontFamily=Helvetica;fontSize=11;fontColor=default;labelBackgroundColor=default;" vertex="1" parent="1">
          <mxGeometry x="580" y="365" width="140" height="30" as="geometry" />
        </mxCell>
        <mxCell id="wmJ9qZLpq_xBiwIUnTlw-54" value="&lt;span style=&quot;font-size: 20px;&quot;&gt;Using small chatbot UI&lt;/span&gt;" style="text;html=1;align=center;verticalAlign=middle;whiteSpace=wrap;rounded=0;fontFamily=Helvetica;fontSize=11;fontColor=default;labelBackgroundColor=default;" vertex="1" parent="1">
          <mxGeometry x="543.5" y="-10" width="231" height="30" as="geometry" />
        </mxCell>
        <mxCell id="wmJ9qZLpq_xBiwIUnTlw-55" value="&lt;span style=&quot;font-size: 20px;&quot;&gt;Using&amp;nbsp; chatbot UI&lt;/span&gt;" style="text;html=1;align=center;verticalAlign=middle;whiteSpace=wrap;rounded=0;fontFamily=Helvetica;fontSize=11;fontColor=default;labelBackgroundColor=default;" vertex="1" parent="1">
          <mxGeometry x="75.5" width="231" height="20" as="geometry" />
        </mxCell>
        <mxCell id="wmJ9qZLpq_xBiwIUnTlw-57" value="&lt;span style=&quot;font-size: 20px;&quot;&gt;&lt;b&gt;UI Structure diagram&lt;/b&gt;&lt;/span&gt;" style="text;html=1;align=center;verticalAlign=middle;whiteSpace=wrap;rounded=0;fontFamily=Helvetica;fontSize=11;fontColor=default;labelBackgroundColor=default;" vertex="1" parent="1">
          <mxGeometry x="619" y="-130" width="231" height="30" as="geometry" />
        </mxCell>
      </root>
    </mxGraphModel>
  </diagram>
</mxfile>
